<svg width="31" height="31" viewBox="0 0 31 31" fill="none" xmlns="http://www.w3.org/2000/svg">
<path d="M25.8333 9.04163H5.16665C3.73991 9.04163 2.58331 10.1982 2.58331 11.625V24.5416C2.58331 25.9684 3.73991 27.125 5.16665 27.125H25.8333C27.26 27.125 28.4166 25.9684 28.4166 24.5416V11.625C28.4166 10.1982 27.26 9.04163 25.8333 9.04163Z" stroke="#B05F30" stroke-width="2" stroke-linecap="round" stroke-linejoin="round"/>
<path d="M20.6666 27.125V6.45833C20.6666 5.77319 20.3945 5.11611 19.91 4.63164C19.4255 4.14717 18.7685 3.875 18.0833 3.875H12.9166C12.2315 3.875 11.5744 4.14717 11.09 4.63164C10.6055 5.11611 10.3333 5.77319 10.3333 6.45833V27.125" stroke="#B05F30" stroke-width="2" stroke-linecap="round" stroke-linejoin="round"/>
</svg>
