<svg width="37" height="36" viewBox="0 0 37 36" fill="none" xmlns="http://www.w3.org/2000/svg">
<path d="M18.1399 10.6367C14.1187 10.6367 10.8734 13.8115 10.8734 17.7452C10.8734 21.679 14.1187 24.8538 18.1399 24.8538C22.1611 24.8538 25.4064 21.679 25.4064 17.7452C25.4064 13.8115 22.1611 10.6367 18.1399 10.6367ZM18.1399 22.3653C15.5394 22.3653 13.4172 20.2892 13.4172 17.7452C13.4172 15.2013 15.5394 13.1252 18.1399 13.1252C20.7404 13.1252 22.8626 15.2013 22.8626 17.7452C22.8626 20.2892 20.7404 22.3653 18.1399 22.3653ZM25.704 8.68891C24.7651 8.68891 24.0069 9.43061 24.0069 10.3491C24.0069 11.2675 24.7651 12.0092 25.704 12.0092C26.6429 12.0092 27.401 11.271 27.401 10.3491C27.4013 10.131 27.3576 9.91497 27.2724 9.71343C27.1872 9.51189 27.0622 9.32877 26.9046 9.17455C26.747 9.02034 26.5598 8.89806 26.3537 8.81473C26.1477 8.7314 25.9269 8.68864 25.704 8.68891ZM32.3044 17.7452C32.3044 15.8321 32.3221 13.9362 32.2123 12.0266C32.1025 9.80839 31.5852 7.83978 29.9271 6.21775C28.2655 4.59225 26.2567 4.0897 23.9892 3.98226C22.0335 3.87481 20.0956 3.89214 18.1434 3.89214C16.1878 3.89214 14.2498 3.87481 12.2977 3.98226C10.0302 4.0897 8.01786 4.59572 6.35978 6.21775C4.69816 7.84324 4.18444 9.80839 4.07461 12.0266C3.96478 13.9397 3.9825 15.8355 3.9825 17.7452C3.9825 19.6549 3.96478 21.5542 4.07461 23.4639C4.18444 25.6821 4.70171 27.6507 6.35978 29.2727C8.0214 30.8982 10.0302 31.4008 12.2977 31.5082C14.2533 31.6157 16.1913 31.5983 18.1434 31.5983C20.0991 31.5983 22.0371 31.6157 23.9892 31.5082C26.2567 31.4008 28.269 30.8948 29.9271 29.2727C31.5887 27.6472 32.1025 25.6821 32.2123 23.4639C32.3257 21.5542 32.3044 19.6584 32.3044 17.7452ZM29.1866 25.9178C28.928 26.5486 28.6162 27.0199 28.1167 27.5051C27.6171 27.9938 27.1389 28.2988 26.494 28.5518C24.6305 29.2762 20.2054 29.1133 18.1399 29.1133C16.0744 29.1133 11.6458 29.2762 9.78222 28.5553C9.13741 28.3023 8.65558 27.9973 8.15957 27.5086C7.66002 27.0199 7.34825 26.552 7.08962 25.9212C6.3527 24.0947 6.51921 19.7659 6.51921 17.7452C6.51921 15.7246 6.3527 11.3923 7.08962 9.56925C7.34825 8.93846 7.66002 8.4671 8.15957 7.98188C8.65912 7.49665 9.13741 7.18819 9.78222 6.93518C11.6458 6.21428 16.0744 6.37718 18.1399 6.37718C20.2054 6.37718 24.634 6.21428 26.4976 6.93518C27.1424 7.18819 27.6242 7.49319 28.1202 7.98188C28.6198 8.47056 28.9316 8.93846 29.1902 9.56925C29.9271 11.3923 29.7606 15.7246 29.7606 17.7452C29.7606 19.7659 29.9271 24.0947 29.1866 25.9178Z" fill="white"/>
</svg>
