<svg width="31" height="31" viewBox="0 0 31 31" fill="none" xmlns="http://www.w3.org/2000/svg">
<path d="M11.625 28.4167C12.3384 28.4167 12.9167 27.8384 12.9167 27.125C12.9167 26.4117 12.3384 25.8334 11.625 25.8334C10.9116 25.8334 10.3333 26.4117 10.3333 27.125C10.3333 27.8384 10.9116 28.4167 11.625 28.4167Z" stroke="#B05F30" stroke-width="2" stroke-linecap="round" stroke-linejoin="round"/>
<path d="M25.8333 28.4167C26.5467 28.4167 27.125 27.8384 27.125 27.125C27.125 26.4117 26.5467 25.8334 25.8333 25.8334C25.12 25.8334 24.5417 26.4117 24.5417 27.125C24.5417 27.8384 25.12 28.4167 25.8333 28.4167Z" stroke="#B05F30" stroke-width="2" stroke-linecap="round" stroke-linejoin="round"/>
<path d="M1.29167 1.29163H6.45834L9.92 18.587C10.0381 19.1817 10.3616 19.7159 10.8339 20.0961C11.3062 20.4763 11.8972 20.6782 12.5033 20.6666H25.0583C25.6645 20.6782 26.2555 20.4763 26.7278 20.0961C27.2 19.7159 27.5236 19.1817 27.6417 18.587L29.7083 7.74996H7.75" stroke="#B05F30" stroke-width="2" stroke-linecap="round" stroke-linejoin="round"/>
</svg>
