<svg width="37" height="36" viewBox="0 0 37 36" fill="none" xmlns="http://www.w3.org/2000/svg">
<path d="M33.1084 8.81387C32.0242 9.27137 30.8444 9.60063 29.6292 9.72887C30.8909 8.99561 31.8357 7.83719 32.2864 6.47094C31.1025 7.15992 29.8055 7.64304 28.453 7.89888C27.8877 7.3077 27.204 6.83673 26.4445 6.51533C25.6851 6.19393 24.866 6.02899 24.0385 6.03078C20.6905 6.03078 17.9979 8.68564 17.9979 11.9436C17.9979 12.4011 18.0546 12.8586 18.1467 13.2987C13.1335 13.0422 8.66238 10.6993 5.68989 7.11213C5.14828 8.01712 4.86445 9.04756 4.86794 10.0962C4.86794 12.148 5.93435 13.9572 7.56054 15.0213C6.60221 14.9843 5.66631 14.7267 4.82897 14.2692V14.3419C4.82897 17.2152 6.90511 19.5962 9.67211 20.1438C9.15257 20.2758 8.61812 20.3434 8.08135 20.3448C7.68809 20.3448 7.31608 20.3067 6.94054 20.2547C7.7058 22.5977 9.93428 24.2994 12.5879 24.3549C10.5118 25.9457 7.91129 26.8815 5.0876 26.8815C4.58097 26.8815 4.11331 26.8642 3.62793 26.8087C6.30636 28.4897 9.48433 29.4601 12.9068 29.4601C24.0173 29.4601 30.0969 20.4558 30.0969 12.6402C30.0969 12.3837 30.0969 12.1273 30.0792 11.8708C31.2554 11.0286 32.2864 9.98534 33.1084 8.81387Z" fill="white"/>
</svg>
